<svg xmlns="http://www.w3.org/2000/svg" viewBox="0 0 349.33 65.31"><defs><style>.cls-1{fill:#8c8c8c;}.cls-2{fill:#fff;}</style></defs><g id="Layer_2" data-name="Layer 2"><g id="Layer_1-2" data-name="Layer 1"><path class="cls-1" d="M83.21,3.06h-6.8l.36-1.77H92.38L92,3.06H85.22l-3.5,17.5h-2Z"/><path class="cls-1" d="M106.47,10.68a8.84,8.84,0,0,1-.16,1.65l-1.66,8.23h-2l1.65-8.26a7.8,7.8,0,0,0,.14-1.32c0-2.06-1.24-3.25-3.75-3.25-3.08,0-5.2,1.68-5.89,5.07l-1.54,7.76h-2L95.43.14h2L95.76,8.26A7.08,7.08,0,0,1,101.3,6C104.57,6,106.47,7.73,106.47,10.68Z"/><path class="cls-1" d="M111.87,13.87a3.82,3.82,0,0,0,0,.58c0,2.89,1.65,4.52,5,4.52a6.52,6.52,0,0,0,4.73-1.82l.89,1.4a8.31,8.31,0,0,1-5.78,2.15c-4.19,0-6.75-2.37-6.75-6.17,0-4.92,3.39-8.56,8-8.56,3.83,0,6.31,2.29,6.31,6.14a9,9,0,0,1-.2,1.76Zm.19-1.46h10.32a3.14,3.14,0,0,0,0-.52c0-2.75-1.85-4.27-4.54-4.27A5.88,5.88,0,0,0,112.06,12.41Z"/><path class="cls-1" d="M138.15,1.29h2L136.67,18.8h10.79l-.36,1.76H134.3Z"/><path class="cls-1" d="M153,6.08h2l-2.87,14.48h-2Zm.5-4.46A1.47,1.47,0,0,1,155,.14a1.3,1.3,0,0,1,1.35,1.24,1.5,1.5,0,0,1-1.54,1.54A1.3,1.3,0,0,1,153.46,1.62Z"/><path class="cls-1" d="M160.64,16.19a6.46,6.46,0,0,0-.11.9c0,1.24.69,1.93,2.09,1.93a3.71,3.71,0,0,0,2.23-.74l.47,1.48a5.38,5.38,0,0,1-3.22.94c-2.17,0-3.52-1.24-3.52-3.3a4.92,4.92,0,0,1,.11-1.13l1.68-8.54h-2.56l.3-1.65h2.59l.63-3.16h1.95l-.63,3.16h4.41l-.34,1.65h-4.4Z"/><path class="cls-1" d="M171.43,16.19a6.46,6.46,0,0,0-.11.9c0,1.24.69,1.93,2.09,1.93a3.71,3.71,0,0,0,2.23-.74l.47,1.48a5.38,5.38,0,0,1-3.22.94c-2.17,0-3.52-1.24-3.52-3.3a5.54,5.54,0,0,1,.11-1.13l1.68-8.54H168.6l.3-1.65h2.59l.63-3.16h1.95l-.63,3.16h4.41l-.34,1.65h-4.4Z"/><path class="cls-1" d="M183.54.14h2l-4.08,20.42h-1.95Z"/><path class="cls-1" d="M188.69,13.87a3.82,3.82,0,0,0,0,.58c0,2.89,1.65,4.52,5,4.52a6.53,6.53,0,0,0,4.73-1.82l.88,1.4a8.29,8.29,0,0,1-5.78,2.15c-4.18,0-6.74-2.37-6.74-6.17,0-4.92,3.38-8.56,8-8.56,3.82,0,6.3,2.29,6.3,6.14a9,9,0,0,1-.19,1.76Zm.19-1.46h10.33a4.7,4.7,0,0,0,0-.52c0-2.75-1.84-4.27-4.54-4.27A5.89,5.89,0,0,0,188.88,12.41Z"/><path class="cls-1" d="M216.63,3.06l-1.51,7.57h10l-.36,1.76h-10l-1.63,8.17h-2L215,1.29h13.21l-.36,1.77Z"/><path class="cls-1" d="M229.46,13.87a3.82,3.82,0,0,0,0,.58c0,2.89,1.65,4.52,5,4.52a6.56,6.56,0,0,0,4.74-1.82l.88,1.4a8.31,8.31,0,0,1-5.78,2.15c-4.19,0-6.75-2.37-6.75-6.17,0-4.92,3.39-8.56,8-8.56,3.83,0,6.31,2.29,6.31,6.14a9,9,0,0,1-.2,1.76Zm.19-1.46H240a3.14,3.14,0,0,0,0-.52c0-2.75-1.84-4.27-4.54-4.27A5.89,5.89,0,0,0,229.65,12.41Z"/><path class="cls-1" d="M248.34.14h1.95l-4.07,20.42h-1.95Z"/><path class="cls-1" d="M255.74.14h2l-4.08,20.42h-2Z"/><path class="cls-1" d="M258.94,14.56A8.21,8.21,0,0,1,267.31,6c4,0,6.57,2.37,6.57,6.11,0,5-3.49,8.62-8.36,8.62C261.5,20.7,258.94,18.28,258.94,14.56Zm13-2.37c0-2.83-1.73-4.51-4.76-4.51-3.61,0-6.28,2.86-6.28,6.8,0,2.83,1.74,4.49,4.76,4.49C269.26,19,271.93,16.13,271.93,12.19Z"/><path class="cls-1" d="M300.17,6.08,292,20.56h-1.9L287.68,8.73,280.9,20.56H279L276.2,6.08H278l2.34,12.28,7-12.28H289l2.42,12.28,6.88-12.28Z"/><path class="cls-1" d="M298.41,18.94l.94-1.54a8,8,0,0,0,5,1.59c2.78,0,4.29-1,4.29-2.58,0-3.28-8.2-1-8.2-5.92,0-2.76,2.47-4.52,6.27-4.52a8.84,8.84,0,0,1,4.9,1.35l-.82,1.57a7.29,7.29,0,0,0-4.24-1.24c-2.67,0-4.18,1.08-4.18,2.64,0,3.36,8.2,1.08,8.2,5.9,0,2.86-2.56,4.51-6.42,4.51A9.17,9.17,0,0,1,298.41,18.94Z"/><path class="cls-1" d="M320.49,14.56A8.21,8.21,0,0,1,328.86,6c4,0,6.57,2.37,6.57,6.11,0,5-3.49,8.62-8.36,8.62C323.05,20.7,320.49,18.28,320.49,14.56Zm13-2.37c0-2.83-1.73-4.51-4.76-4.51-3.61,0-6.28,2.86-6.28,6.8,0,2.83,1.74,4.49,4.76,4.49C330.81,19,333.48,16.13,333.48,12.19Z"/><path class="cls-1" d="M343.33,4.49,343,6.08h4.44l-.34,1.65h-4.37l-2.56,12.83h-2l2.56-12.83h-2.58l.3-1.65h2.61l.36-1.81c.55-2.73,2.23-4.27,5-4.27a4.38,4.38,0,0,1,2.91.94l-.85,1.43a3,3,0,0,0-2.06-.72C344.71,1.65,343.75,2.53,343.33,4.49Z"/><path class="cls-2" d="M11.65,35.15H0V28.29H31.72v6.86H20.07V64.69H11.65Z"/><path class="cls-2" d="M71.14,28.29v36.4H62.71V49.76H46.18V64.69H37.75V28.29h8.43V42.64H62.71V28.29Z"/><path class="cls-2" d="M109.46,57.93v6.76H81.28V28.29h27.51v6.76H89.65V43h16.9V49.5H89.65v8.43Z"/><path class="cls-2" d="M188.92,28.29,177,64.69h-9L160,40l-8.27,24.65h-9l-12-36.4h8.73l8.22,25.58,8.58-25.58h7.8l8.32,25.79,8.48-25.79Z"/><path class="cls-2" d="M192.4,46.49c0-10.82,8.42-18.83,19.92-18.83s19.91,8,19.91,18.83-8.47,18.82-19.91,18.82S192.4,57.3,192.4,46.49Zm31.3,0c0-6.92-4.88-11.65-11.38-11.65s-11.39,4.73-11.39,11.65,4.89,11.65,11.39,11.65S223.7,53.4,223.7,46.49Z"/><path class="cls-2" d="M263.28,64.69l-7-10.14h-7.75V64.69h-8.43V28.29h15.76c9.72,0,15.81,5,15.81,13.21A11.84,11.84,0,0,1,264.16,53l8.16,11.7Zm-7.91-29.54h-6.86V47.84h6.86c5.15,0,7.75-2.39,7.75-6.34S260.52,35.15,255.37,35.15Z"/><path class="cls-2" d="M279.81,28.29h8.42V57.82h18.26v6.87H279.81Z"/><path class="cls-2" d="M312.73,28.29h16.53c11.91,0,20.07,7.17,20.07,18.2s-8.16,18.2-20.07,18.2H312.73Zm16.12,29.48c7.22,0,12-4.31,12-11.28s-4.74-11.29-12-11.29h-7.7V57.77Z"/><circle class="cls-2" cx="15.86" cy="16.89" r="7.78"/></g></g></svg>